<svg width="67" height="65" viewBox="0 0 67 65" fill="none" xmlns="http://www.w3.org/2000/svg">
<path d="M50.9417 22.0227C50.9417 22.0227 16.6185 56.736 15.8384 57.126C15.0583 57.516 2.57718 63.3666 2.18716 62.5865C1.79714 61.8064 7.25757 49.3253 7.64765 48.5452C8.03773 47.7651 45.4812 10.3216 46.2613 10.3216C47.0414 10.3216 53.672 18.1224 54.4521 18.1224C55.2321 18.1224 62.6428 11.1017 62.6428 10.3216C62.6428 9.54155 56.0122 2.13086 55.2321 2.13086C54.4521 2.13086 50.9417 5.64119 50.9417 5.64119" stroke="#FEECDE" stroke-width="4" stroke-linecap="round"/>
<path d="M19.7388 29.0434L4.52734 7.20135L8.03767 4.08105L28.3196 19.2925" stroke="#FEECDE" stroke-width="4" stroke-linecap="round"/>
<path d="M36.1203 45.0349C36.1203 45.0349 43.921 50.1054 44.3111 50.1054M44.3111 50.1054C44.7011 50.1054 49.3815 45.4249 49.3815 45.0349M44.3111 50.1054C44.4411 52.8356 45.5592 58.6082 48.9915 59.8563C52.4238 61.1044 60.3026 61.9365 63.8129 62.1965C63.0328 58.9462 60.6926 51.2755 57.1823 48.1552C53.6719 45.0349 50.5516 44.6449 49.3815 45.0349M49.3815 45.0349C49.3815 44.6449 43.531 36.4541 43.531 36.4541" stroke="#FEECDE" stroke-width="4" stroke-linecap="round"/>
</svg>
